<mxfile host="app.diagrams.net" modified="2021-03-11T06:23:21.490Z" agent="5.0 (Macintosh; Intel Mac OS X 10_15_7) AppleWebKit/537.36 (KHTML, like Gecko) Chrome/88.0.4324.192 Safari/537.36" etag="EEbGUh8EogAH8JLPp_hr" version="14.4.7" type="github">
  <diagram id="3TG3PWvO12CCkWI3tpkz" name="第 1 页">
    <mxGraphModel dx="1298" dy="641" grid="1" gridSize="10" guides="1" tooltips="1" connect="1" arrows="1" fold="1" page="1" pageScale="1" pageWidth="827" pageHeight="1169" math="0" shadow="0">
      <root>
        <mxCell id="0" />
        <mxCell id="1" parent="0" />
        <mxCell id="nwXhbX-o7swwx8_nz2Ns-1" value="" style="rounded=1;whiteSpace=wrap;html=1;dashed=1;strokeWidth=4;" vertex="1" parent="1">
          <mxGeometry x="175" y="70" width="470" height="220" as="geometry" />
        </mxCell>
        <mxCell id="nwXhbX-o7swwx8_nz2Ns-2" value="&lt;span style=&quot;color: rgba(0 , 0 , 0 , 0) ; font-family: monospace ; font-size: 0px&quot;&gt;%3CmxGraphModel%3E%3Croot%3E%3CmxCell%20id%3D%220%22%2F%3E%3CmxCell%20id%3D%221%22%20parent%3D%220%22%2F%3E%3CmxCell%20id%3D%222%22%20value%3D%22%E5%88%B0%E6%89%8B%E4%BB%B7%E4%BB%B7%E6%A0%BC%E5%8E%86%E5%8F%B2%22%20style%3D%22rounded%3D1%3BwhiteSpace%3Dwrap%3Bhtml%3D1%3B%22%20vertex%3D%221%22%20parent%3D%221%22%3E%3CmxGeometry%20x%3D%22192.13%22%20y%3D%22585%22%20width%3D%2231%22%20height%3D%22110%22%20as%3D%22geometry%22%2F%3E%3C%2FmxCell%3E%3C%2Froot%3E%3C%2FmxGraphModel%3E&lt;/span&gt;" style="rounded=1;whiteSpace=wrap;html=1;dashed=1;strokeWidth=4;" vertex="1" parent="1">
          <mxGeometry x="174" y="530" width="480" height="180" as="geometry" />
        </mxCell>
        <mxCell id="nwXhbX-o7swwx8_nz2Ns-3" value="" style="rounded=1;whiteSpace=wrap;html=1;dashed=1;strokeWidth=4;" vertex="1" parent="1">
          <mxGeometry x="174.25" y="300" width="475.75" height="220" as="geometry" />
        </mxCell>
        <mxCell id="nwXhbX-o7swwx8_nz2Ns-4" value="基础功能" style="rounded=1;whiteSpace=wrap;html=1;fillColor=#e51400;strokeColor=#B20000;fontColor=#ffffff;" vertex="1" parent="1">
          <mxGeometry x="200.07" y="540" width="427.87" height="35" as="geometry" />
        </mxCell>
        <mxCell id="nwXhbX-o7swwx8_nz2Ns-5" value="使用范围" style="rounded=1;whiteSpace=wrap;html=1;fillColor=#e51400;strokeColor=#B20000;fontColor=#ffffff;" vertex="1" parent="1">
          <mxGeometry x="194" y="80" width="440" height="40" as="geometry" />
        </mxCell>
        <mxCell id="nwXhbX-o7swwx8_nz2Ns-6" value="场景入口" style="rounded=1;whiteSpace=wrap;html=1;fillColor=#e51400;strokeColor=#B20000;fontColor=#ffffff;" vertex="1" parent="1">
          <mxGeometry x="194" y="310" width="440" height="35" as="geometry" />
        </mxCell>
        <mxCell id="nwXhbX-o7swwx8_nz2Ns-13" value="" style="rounded=1;whiteSpace=wrap;html=1;fillColor=#e51400;strokeColor=#B20000;fontColor=#ffffff;" vertex="1" parent="1">
          <mxGeometry x="387" y="240" width="120" height="30" as="geometry" />
        </mxCell>
        <mxCell id="nwXhbX-o7swwx8_nz2Ns-14" value="&lt;font color=&quot;#ffffff&quot;&gt;供应商&lt;/font&gt;" style="text;html=1;strokeColor=none;fillColor=none;align=center;verticalAlign=middle;whiteSpace=wrap;rounded=0;" vertex="1" parent="1">
          <mxGeometry x="429.01" y="245" width="40" height="20" as="geometry" />
        </mxCell>
        <mxCell id="nwXhbX-o7swwx8_nz2Ns-15" value="营销端" style="rounded=1;whiteSpace=wrap;html=1;fillColor=#e51400;strokeColor=#B20000;fontColor=#ffffff;" vertex="1" parent="1">
          <mxGeometry x="516.01" y="240" width="120" height="30" as="geometry" />
        </mxCell>
        <mxCell id="nwXhbX-o7swwx8_nz2Ns-16" value="" style="rounded=1;whiteSpace=wrap;html=1;fillColor=#e51400;strokeColor=#B20000;fontColor=#ffffff;" vertex="1" parent="1">
          <mxGeometry x="272.01" y="140" width="107.99" height="30" as="geometry" />
        </mxCell>
        <mxCell id="nwXhbX-o7swwx8_nz2Ns-17" value="&lt;font color=&quot;#ffffff&quot;&gt;大促期间&lt;/font&gt;" style="text;html=1;align=center;verticalAlign=middle;whiteSpace=wrap;rounded=0;" vertex="1" parent="1">
          <mxGeometry x="301" y="145" width="50" height="20" as="geometry" />
        </mxCell>
        <mxCell id="nwXhbX-o7swwx8_nz2Ns-18" value="单促" style="rounded=1;whiteSpace=wrap;html=1;fillColor=#e51400;strokeColor=#B20000;fontColor=#ffffff;" vertex="1" parent="1">
          <mxGeometry x="272.01" y="190" width="107.99" height="30" as="geometry" />
        </mxCell>
        <mxCell id="nwXhbX-o7swwx8_nz2Ns-19" value="总促" style="rounded=1;whiteSpace=wrap;html=1;fillColor=#e51400;strokeColor=#B20000;fontColor=#ffffff;" vertex="1" parent="1">
          <mxGeometry x="389.01" y="190" width="120" height="30" as="geometry" />
        </mxCell>
        <mxCell id="nwXhbX-o7swwx8_nz2Ns-22" value="" style="rounded=1;whiteSpace=wrap;html=1;strokeWidth=4;" vertex="1" parent="1">
          <mxGeometry x="209" y="360" width="171" height="140" as="geometry" />
        </mxCell>
        <mxCell id="nwXhbX-o7swwx8_nz2Ns-23" value="" style="rounded=1;whiteSpace=wrap;html=1;strokeWidth=4;" vertex="1" parent="1">
          <mxGeometry x="440" y="360" width="184" height="140" as="geometry" />
        </mxCell>
        <mxCell id="nwXhbX-o7swwx8_nz2Ns-25" value="促销提报系统" style="text;html=1;strokeColor=none;fillColor=none;align=center;verticalAlign=middle;whiteSpace=wrap;rounded=0;" vertex="1" parent="1">
          <mxGeometry x="252.25" y="370" width="75.5" height="20" as="geometry" />
        </mxCell>
        <mxCell id="nwXhbX-o7swwx8_nz2Ns-26" value="达尔文" style="text;html=1;strokeColor=none;fillColor=none;align=center;verticalAlign=middle;whiteSpace=wrap;rounded=0;" vertex="1" parent="1">
          <mxGeometry x="507" y="370" width="40" height="20" as="geometry" />
        </mxCell>
        <mxCell id="nwXhbX-o7swwx8_nz2Ns-27" value="闪购" style="rounded=1;whiteSpace=wrap;html=1;fillColor=#e51400;strokeColor=#B20000;fontColor=#ffffff;" vertex="1" parent="1">
          <mxGeometry x="230" y="400" width="120" height="20" as="geometry" />
        </mxCell>
        <mxCell id="nwXhbX-o7swwx8_nz2Ns-28" value="秒杀" style="rounded=1;whiteSpace=wrap;html=1;fillColor=#e51400;strokeColor=#B20000;fontColor=#ffffff;" vertex="1" parent="1">
          <mxGeometry x="230" y="430" width="120" height="20" as="geometry" />
        </mxCell>
        <mxCell id="nwXhbX-o7swwx8_nz2Ns-29" value="总促" style="rounded=1;whiteSpace=wrap;html=1;fillColor=#e51400;strokeColor=#B20000;fontColor=#ffffff;" vertex="1" parent="1">
          <mxGeometry x="470" y="400" width="120" height="20" as="geometry" />
        </mxCell>
        <mxCell id="nwXhbX-o7swwx8_nz2Ns-30" value="优惠券" style="rounded=1;whiteSpace=wrap;html=1;fillColor=#e51400;strokeColor=#B20000;fontColor=#ffffff;" vertex="1" parent="1">
          <mxGeometry x="472" y="430" width="120" height="20" as="geometry" />
        </mxCell>
        <mxCell id="nwXhbX-o7swwx8_nz2Ns-32" value="到手价价格历史" style="rounded=1;whiteSpace=wrap;html=1;fillColor=#e51400;strokeColor=#B20000;fontColor=#ffffff;" vertex="1" parent="1">
          <mxGeometry x="200.07" y="585" width="31" height="110" as="geometry" />
        </mxCell>
        <mxCell id="nwXhbX-o7swwx8_nz2Ns-33" value="促销规则校验" style="rounded=1;whiteSpace=wrap;html=1;fillColor=#e51400;strokeColor=#B20000;fontColor=#ffffff;" vertex="1" parent="1">
          <mxGeometry x="257.94" y="585" width="31" height="110" as="geometry" />
        </mxCell>
        <mxCell id="nwXhbX-o7swwx8_nz2Ns-34" value="到手价计算器" style="rounded=1;whiteSpace=wrap;html=1;fillColor=#e51400;strokeColor=#B20000;fontColor=#ffffff;" vertex="1" parent="1">
          <mxGeometry x="307.94" y="585" width="31" height="110" as="geometry" />
        </mxCell>
        <mxCell id="nwXhbX-o7swwx8_nz2Ns-35" value="价格锁定" style="rounded=1;whiteSpace=wrap;html=1;fillColor=#e51400;strokeColor=#B20000;fontColor=#ffffff;" vertex="1" parent="1">
          <mxGeometry x="357.94" y="585" width="31" height="110" as="geometry" />
        </mxCell>
        <mxCell id="nwXhbX-o7swwx8_nz2Ns-36" value="腰带生成" style="rounded=1;whiteSpace=wrap;html=1;fillColor=#e51400;strokeColor=#B20000;fontColor=#ffffff;" vertex="1" parent="1">
          <mxGeometry x="406.94" y="585" width="31" height="110" as="geometry" />
        </mxCell>
        <mxCell id="nwXhbX-o7swwx8_nz2Ns-37" value="比价" style="rounded=1;whiteSpace=wrap;html=1;fillColor=#e51400;strokeColor=#B20000;fontColor=#ffffff;" vertex="1" parent="1">
          <mxGeometry x="507.94" y="585" width="31" height="110" as="geometry" />
        </mxCell>
        <mxCell id="nwXhbX-o7swwx8_nz2Ns-38" value="到手价实时计算" style="rounded=1;whiteSpace=wrap;html=1;fillColor=#e51400;strokeColor=#B20000;fontColor=#ffffff;" vertex="1" parent="1">
          <mxGeometry x="457.94" y="585" width="31" height="110" as="geometry" />
        </mxCell>
        <mxCell id="nwXhbX-o7swwx8_nz2Ns-39" value="价保校验" style="rounded=1;whiteSpace=wrap;html=1;fillColor=#e51400;strokeColor=#B20000;fontColor=#ffffff;" vertex="1" parent="1">
          <mxGeometry x="554.94" y="587.5" width="31" height="105" as="geometry" />
        </mxCell>
        <mxCell id="nwXhbX-o7swwx8_nz2Ns-43" value="违规惩罚" style="rounded=1;whiteSpace=wrap;html=1;fillColor=#e51400;strokeColor=#B20000;fontColor=#ffffff;" vertex="1" parent="1">
          <mxGeometry x="599.94" y="585" width="31" height="110" as="geometry" />
        </mxCell>
        <mxCell id="nwXhbX-o7swwx8_nz2Ns-48" value="&lt;font style=&quot;font-size: 16px&quot;&gt;时间&lt;/font&gt;" style="text;html=1;strokeColor=none;fillColor=none;align=center;verticalAlign=middle;whiteSpace=wrap;rounded=0;" vertex="1" parent="1">
          <mxGeometry x="200.07000000000005" y="145" width="40" height="20" as="geometry" />
        </mxCell>
        <mxCell id="nwXhbX-o7swwx8_nz2Ns-50" value="&lt;font style=&quot;font-size: 16px&quot;&gt;活动&lt;/font&gt;" style="text;html=1;strokeColor=none;fillColor=none;align=center;verticalAlign=middle;whiteSpace=wrap;rounded=0;" vertex="1" parent="1">
          <mxGeometry x="200.07000000000005" y="195" width="40" height="20" as="geometry" />
        </mxCell>
        <mxCell id="nwXhbX-o7swwx8_nz2Ns-52" value="&lt;font style=&quot;font-size: 16px&quot;&gt;人员&lt;/font&gt;" style="text;html=1;strokeColor=none;fillColor=none;align=center;verticalAlign=middle;whiteSpace=wrap;rounded=0;" vertex="1" parent="1">
          <mxGeometry x="200.07000000000005" y="245" width="40" height="20" as="geometry" />
        </mxCell>
        <mxCell id="nwXhbX-o7swwx8_nz2Ns-55" value="自营" style="rounded=1;whiteSpace=wrap;html=1;fillColor=#e51400;strokeColor=#B20000;fontColor=#ffffff;" vertex="1" parent="1">
          <mxGeometry x="272.01" y="240" width="107.99" height="30" as="geometry" />
        </mxCell>
      </root>
    </mxGraphModel>
  </diagram>
</mxfile>
